<svg xmlns="http://www.w3.org/2000/svg" version="1.1" xmlns:xlink="http://www.w3.org/1999/xlink" xmlns:svgjs="http://svgjs.dev/svgjs" width="1500" height="390" viewBox="0 0 1500 390"><g transform="matrix(1,0,0,1,-0.9090909090909918,-1.4891604175749364)"><svg viewBox="0 0 396 103" data-background-color="#ffffff" preserveAspectRatio="xMidYMid meet" height="390" width="1500" xmlns="http://www.w3.org/2000/svg" xmlns:xlink="http://www.w3.org/1999/xlink"><g id="tight-bounds" transform="matrix(1,0,0,1,0.2400000000000091,0.39329108464158935)"><svg viewBox="0 0 395.52 102.21341783071679" height="102.21341783071679" width="395.52"><g><svg viewBox="0 0 395.52 102.21341783071679" height="102.21341783071679" width="395.52"><g><svg viewBox="0 0 395.52 102.21341783071679" height="102.21341783071679" width="395.52"><g><svg viewBox="0 0 395.52 102.21341783071679" height="102.21341783071679" width="395.52"><g id="textblocktransform"><svg viewBox="0 0 395.52 102.21341783071679" height="102.21341783071679" width="395.52" id="textblock"><g><svg viewBox="0 0 395.52 59.79914477703115" height="59.79914477703115" width="395.52"><g transform="matrix(1,0,0,1,0,0)"><svg width="395.52" viewBox="2.86 -35.5 239.76999999999998 36.26" height="59.79914477703115" data-palette-color="#2a2c35"><path d="M9.84-13.99L23.85-13.99 23.85-21Q23.85-22.44 23.3-23.72 22.75-25 21.8-25.95 20.85-26.9 19.57-27.45 18.29-28 16.85-28L16.85-28Q15.41-28 14.12-27.45 12.84-26.9 11.89-25.95 10.94-25 10.39-23.72 9.84-22.44 9.84-21L9.84-21 9.84-13.99ZM30.86-21L30.86 0 23.85 0 23.85-7.01 9.84-7.01 9.84 0 2.86 0 2.86-21Q2.86-23.9 3.96-26.45 5.05-29 6.95-30.91 8.84-32.81 11.39-33.91 13.94-35.01 16.85-35.01L16.85-35.01Q19.75-35.01 22.3-33.91 24.85-32.81 26.76-30.91 28.66-29 29.76-26.45 30.86-23.9 30.86-21L30.86-21ZM43.94-35.01L43.94 0 36.94 0 36.94-35.01 43.94-35.01ZM50.14-21L70.65-21 70.65-14.36 50.14-14.36 50.14-21ZM90.89-28L83.88-28 83.88-13.99 90.89-13.99Q92.33-13.99 93.6-14.54 94.87-15.09 95.82-16.04 96.77-16.99 97.32-18.27 97.87-19.56 97.87-21L97.87-21Q97.87-22.44 97.32-23.72 96.77-25 95.82-25.95 94.87-26.9 93.6-27.45 92.33-28 90.89-28L90.89-28ZM83.88-7.01L83.88 0 76.87 0 76.87-35.01 90.89-35.01Q92.81-35.01 94.6-34.51 96.38-34.01 97.93-33.09 99.48-32.18 100.76-30.9 102.04-29.61 102.96-28.05 103.87-26.49 104.37-24.71 104.88-22.92 104.88-21L104.88-21Q104.88-18.12 103.78-15.56 102.68-13.01 100.77-11.11 98.87-9.2 96.32-8.11 93.77-7.01 90.89-7.01L90.89-7.01 83.88-7.01ZM115.98-35.01L115.98 0 108.97 0 108.97-35.01 115.98-35.01ZM146.72-9.69L150.43-3.59Q147.99-1.49 144.96-0.37 141.93 0.76 138.68 0.76L138.68 0.76Q136.19 0.76 133.89 0.11 131.58-0.54 129.57-1.72 127.55-2.91 125.89-4.57 124.23-6.23 123.05-8.24 121.86-10.25 121.22-12.56 120.57-14.87 120.57-17.36L120.57-17.36Q120.57-19.85 121.22-22.17 121.86-24.49 123.05-26.5 124.23-28.52 125.89-30.18 127.55-31.84 129.57-33.02 131.58-34.2 133.89-34.85 136.19-35.5 138.68-35.5L138.68-35.5Q141.93-35.5 144.96-34.39 147.99-33.28 150.43-31.15L150.43-31.15 146.72-25.05Q145.18-26.71 143.08-27.6 140.98-28.49 138.68-28.49L138.68-28.49Q136.36-28.49 134.34-27.61 132.31-26.73 130.8-25.23 129.28-23.73 128.41-21.69 127.53-19.65 127.53-17.36L127.53-17.36Q127.53-15.06 128.41-13.05 129.28-11.04 130.8-9.52 132.31-8.01 134.34-7.13 136.36-6.25 138.68-6.25L138.68-6.25Q140.98-6.25 143.08-7.14 145.18-8.03 146.72-9.69L146.72-9.69ZM161.48-7.01L161.48 0 154.48 0 154.48-35.01 161.48-35.01 161.48-17.5 174.52-35.01 182.48-35.01 171.42-20.24 182.48 0 174.52 0 166.83-14.16 161.48-7.01ZM209.72-7.01L209.72 0 185.72 0 185.72-35.01 209.72-35.01 209.72-28 192.73-28 192.73-21 204.23-21 204.23-13.99 192.73-13.99 192.73-7.01 209.72-7.01ZM228.64-28L221.64-28 221.64-13.99 228.64-13.99Q230.08-13.99 231.35-14.54 232.62-15.09 233.57-16.04 234.53-16.99 235.08-18.27 235.62-19.56 235.62-21L235.62-21Q235.62-22.44 235.08-23.72 234.53-25 233.57-25.95 232.62-26.9 231.35-27.45 230.08-28 228.64-28L228.64-28ZM221.64-7.01L221.64 0 214.63 0 214.63-35.01 228.64-35.01Q230.57-35.01 232.35-34.51 234.14-34.01 235.69-33.09 237.24-32.18 238.52-30.9 239.8-29.61 240.71-28.05 241.63-26.49 242.13-24.71 242.63-22.92 242.63-21L242.63-21Q242.63-19.19 242.18-17.48 241.73-15.77 240.89-14.23 240.04-12.7 238.82-11.4 237.6-10.11 236.09-9.16L236.09-9.16 239.97 0 232.52 0 229.47-7.06 221.64-7.01Z" opacity="1" transform="matrix(1,0,0,1,0,0)" fill="#2a2c35" class="wordmark-text-0" data-fill-palette-color="primary" id="text-0"></path></svg></g></svg></g><g transform="matrix(1,0,0,1,166.31616000000002,73.91628767941356)"><svg viewBox="0 0 229.20383999999996 28.297130151303236" height="28.297130151303236" width="229.20383999999996"><g transform="matrix(1,0,0,1,0,0)"><svg width="229.20383999999996" viewBox="0.35 -37.7 393.2 48.550000000000004" height="28.297130151303236" data-palette-color="#2a2c35"><path d="M20.8-29.85L22.35-25.1Q21.3-24.6 19.83-24.4 18.35-24.2 16.15-24.2L16.15-24.2Q18.25-23.2 19.28-21.53 20.3-19.85 20.3-17.4L20.3-17.4Q20.3-13.4 17.85-10.95 15.4-8.5 11.2-8.5L11.2-8.5Q9.95-8.5 8.65-8.9L8.65-8.9Q7.75-8.15 7.75-6.85L7.75-6.85Q7.75-5.85 8.3-5.35 8.85-4.85 10.35-4.85L10.35-4.85 13.15-4.85Q17.15-4.85 19.5-2.78 21.85-0.7 21.85 2.5L21.85 2.5Q21.85 6.3 18.93 8.58 16 10.85 10.6 10.85L10.6 10.85Q4.9 10.85 2.63 8.75 0.35 6.65 0.35 2.6L0.35 2.6 5.8 2.6Q5.8 4.75 6.8 5.65 7.8 6.55 10.65 6.55L10.65 6.55Q13.4 6.55 14.55 5.6 15.7 4.65 15.7 2.9L15.7 2.9Q15.7 1.2 14.75 0.4 13.8-0.4 11.8-0.4L11.8-0.4 9.9-0.4Q6.1-0.4 4.35-1.75 2.6-3.1 2.6-5.45L2.6-5.45Q2.6-6.8 3.33-8.03 4.05-9.25 5.3-10.2L5.3-10.2Q3.25-11.5 2.3-13.3 1.35-15.1 1.35-17.7L1.35-17.7Q1.35-22.05 3.95-24.58 6.55-27.1 10.95-27.1L10.95-27.1Q14.2-27.1 16.32-27.8 18.45-28.5 20.8-29.85L20.8-29.85ZM10.95-23Q9.2-23 8.3-21.75 7.4-20.5 7.4-17.8L7.4-17.8Q7.4-15.25 8.3-13.88 9.2-12.5 10.9-12.5L10.9-12.5Q12.65-12.5 13.5-13.73 14.35-14.95 14.35-17.85L14.35-17.85Q14.35-20.55 13.53-21.78 12.7-23 10.95-23L10.95-23ZM43.95-13.85Q43.95-13.4 43.8-11.3L43.8-11.3 30.15-11.3Q30.35-7.2 31.57-5.58 32.8-3.95 35.05-3.95L35.05-3.95Q36.6-3.95 37.85-4.48 39.1-5 40.55-6.15L40.55-6.15 43.1-2.65Q39.6 0.75 34.7 0.75L34.7 0.75Q29.5 0.75 26.72-2.85 23.95-6.45 23.95-13L23.95-13Q23.95-19.55 26.6-23.35 29.25-27.15 34.1-27.15L34.1-27.15Q38.75-27.15 41.35-23.78 43.95-20.4 43.95-13.85L43.95-13.85ZM37.95-15.3L37.95-15.65Q37.95-19.4 37.05-21.13 36.15-22.85 34.15-22.85L34.15-22.85Q32.3-22.85 31.32-21.18 30.35-19.5 30.15-15.3L30.15-15.3 37.95-15.3ZM60.6-27.15Q63.45-27.15 65.09-25.1 66.75-23.05 66.75-19.6L66.75-19.6 66.75 0 60.6 0 60.6-18.9Q60.6-20.8 60.07-21.63 59.55-22.45 58.55-22.45L58.55-22.45Q56.45-22.45 54.4-18.5L54.4-18.5 54.4 0 48.25 0 48.25-26.45 53.6-26.45 54.05-23Q55.4-25.1 56.92-26.13 58.45-27.15 60.6-27.15L60.6-27.15ZM91.14-13.85Q91.14-13.4 90.99-11.3L90.99-11.3 77.34-11.3Q77.54-7.2 78.77-5.58 79.99-3.95 82.24-3.95L82.24-3.95Q83.79-3.95 85.04-4.48 86.29-5 87.74-6.15L87.74-6.15 90.29-2.65Q86.79 0.75 81.89 0.75L81.89 0.75Q76.69 0.75 73.92-2.85 71.14-6.45 71.14-13L71.14-13Q71.14-19.55 73.79-23.35 76.44-27.15 81.29-27.15L81.29-27.15Q85.94-27.15 88.54-23.78 91.14-20.4 91.14-13.85L91.14-13.85ZM85.14-15.3L85.14-15.65Q85.14-19.4 84.24-21.13 83.34-22.85 81.34-22.85L81.34-22.85Q79.49-22.85 78.52-21.18 77.54-19.5 77.34-15.3L77.34-15.3 85.14-15.3ZM107.09-27.1Q108.24-27.1 109.14-26.75L109.14-26.75 108.14-20.85Q107.14-21.1 106.29-21.1L106.29-21.1Q104.39-21.1 103.29-19.45 102.19-17.8 101.59-14.55L101.59-14.55 101.59 0 95.44 0 95.44-26.45 100.79-26.45 101.24-21.85Q103.09-27.1 107.09-27.1L107.09-27.1ZM128.89-6.4Q128.89-5.1 129.24-4.48 129.59-3.85 130.39-3.45L130.39-3.45 129.14 0.65Q127.09 0.4 125.86-0.45 124.64-1.3 124.04-3.05L124.04-3.05Q121.74 0.75 117.59 0.75L117.59 0.75Q114.29 0.75 112.34-1.48 110.39-3.7 110.39-7.4L110.39-7.4Q110.39-11.7 113.06-13.95 115.74-16.2 120.84-16.2L120.84-16.2 122.89-16.2 122.89-18.05Q122.89-20.55 122.01-21.58 121.14-22.6 119.19-22.6L119.19-22.6Q116.84-22.6 113.34-21.3L113.34-21.3 111.94-25.3Q113.94-26.2 116.09-26.68 118.24-27.15 120.19-27.15L120.19-27.15Q128.89-27.15 128.89-18.35L128.89-18.35 128.89-6.4ZM119.24-3.7Q121.64-3.7 122.89-7L122.89-7 122.89-12.55 121.44-12.55Q118.89-12.55 117.71-11.4 116.54-10.25 116.54-7.85L116.54-7.85Q116.54-5.8 117.24-4.75 117.94-3.7 119.24-3.7L119.24-3.7ZM145.84-5L147.99-1.2Q145.54 0.75 142.24 0.75L142.24 0.75Q138.79 0.75 136.99-1.23 135.19-3.2 135.19-6.6L135.19-6.6 135.19-22 132.09-22 132.09-26.45 135.19-26.45 135.19-32.3 141.34-33.05 141.34-26.45 146.34-26.45 145.74-22 141.34-22 141.34-6.6Q141.34-4.2 143.39-4.2L143.39-4.2Q144.04-4.2 144.54-4.38 145.04-4.55 145.84-5L145.84-5ZM169.38-13.85Q169.38-13.4 169.23-11.3L169.23-11.3 155.58-11.3Q155.78-7.2 157.01-5.58 158.23-3.95 160.48-3.95L160.48-3.95Q162.03-3.95 163.28-4.48 164.53-5 165.98-6.15L165.98-6.15 168.53-2.65Q165.03 0.75 160.13 0.75L160.13 0.75Q154.93 0.75 152.16-2.85 149.38-6.45 149.38-13L149.38-13Q149.38-19.55 152.03-23.35 154.68-27.15 159.53-27.15L159.53-27.15Q164.18-27.15 166.78-23.78 169.38-20.4 169.38-13.85L169.38-13.85ZM163.38-15.3L163.38-15.65Q163.38-19.4 162.48-21.13 161.58-22.85 159.58-22.85L159.58-22.85Q157.73-22.85 156.76-21.18 155.78-19.5 155.58-15.3L155.58-15.3 163.38-15.3ZM202.18-26.45L195.18 0.1Q193.88 4.9 190.98 7.65 188.08 10.4 183.23 10.85L183.23 10.85 182.53 6.5Q185.68 5.85 187.25 4.42 188.83 3 189.73 0L189.73 0 187.43 0 180.73-26.45 186.98-26.45 191.38-4.1 196.08-26.45 202.18-26.45ZM214.48-27.15Q219.48-27.15 222.25-23.65 225.03-20.15 225.03-13.25L225.03-13.25Q225.03-6.65 222.23-2.95 219.43 0.75 214.48 0.75L214.48 0.75Q209.53 0.75 206.73-2.88 203.93-6.5 203.93-13.25L203.93-13.25Q203.93-19.95 206.73-23.55 209.53-27.15 214.48-27.15L214.48-27.15ZM214.48-22.5Q212.33-22.5 211.33-20.38 210.33-18.25 210.33-13.25L210.33-13.25Q210.33-8.2 211.33-6.08 212.33-3.95 214.48-3.95L214.48-3.95Q216.63-3.95 217.63-6.08 218.63-8.2 218.63-13.25L218.63-13.25Q218.63-18.3 217.63-20.4 216.63-22.5 214.48-22.5L214.48-22.5ZM247.72-26.45L247.72 0 242.37 0 242.07-3.35Q240.82-1.3 239.27-0.28 237.72 0.75 235.67 0.75L235.67 0.75Q232.77 0.75 231.1-1.3 229.42-3.35 229.42-6.65L229.42-6.65 229.42-26.45 235.57-26.45 235.57-7Q235.57-3.9 237.67-3.9L237.67-3.9Q238.87-3.9 239.82-4.83 240.77-5.75 241.57-7.45L241.57-7.45 241.57-26.45 247.72-26.45ZM265.07-27.1Q266.22-27.1 267.12-26.75L267.12-26.75 266.12-20.85Q265.12-21.1 264.27-21.1L264.27-21.1Q262.37-21.1 261.27-19.45 260.17-17.8 259.57-14.55L259.57-14.55 259.57 0 253.42 0 253.42-26.45 258.77-26.45 259.22-21.85Q261.07-27.1 265.07-27.1L265.07-27.1ZM289.52-33.05Q288.12-33.05 287.44-32.3 286.77-31.55 286.77-30L286.77-30 286.77-26.45 291.82-26.45 291.12-22 286.77-22 286.77 0 280.62 0 280.62-22 277.32-22 277.32-26.45 280.62-26.45 280.62-29.8Q280.62-33.4 282.72-35.55 284.82-37.7 288.72-37.7L288.72-37.7Q291.77-37.7 294.62-36.2L294.62-36.2 292.92-32.2Q291.17-33.05 289.52-33.05L289.52-33.05ZM312.76-26.45L312.76 0 307.41 0 307.11-3.35Q305.86-1.3 304.31-0.28 302.76 0.75 300.71 0.75L300.71 0.75Q297.81 0.75 296.14-1.3 294.46-3.35 294.46-6.65L294.46-6.65 294.46-26.45 300.61-26.45 300.61-7Q300.61-3.9 302.71-3.9L302.71-3.9Q303.91-3.9 304.86-4.83 305.81-5.75 306.61-7.45L306.61-7.45 306.61-26.45 312.76-26.45ZM329.61-5L331.76-1.2Q329.31 0.75 326.01 0.75L326.01 0.75Q322.56 0.75 320.76-1.23 318.96-3.2 318.96-6.6L318.96-6.6 318.96-22 315.86-22 315.86-26.45 318.96-26.45 318.96-32.3 325.11-33.05 325.11-26.45 330.11-26.45 329.51-22 325.11-22 325.11-6.6Q325.11-4.2 327.16-4.2L327.16-4.2Q327.81-4.2 328.31-4.38 328.81-4.55 329.61-5L329.61-5ZM352.46-26.45L352.46 0 347.11 0 346.81-3.35Q345.56-1.3 344.01-0.28 342.46 0.75 340.41 0.75L340.41 0.75Q337.51 0.75 335.83-1.3 334.16-3.35 334.16-6.65L334.16-6.65 334.16-26.45 340.31-26.45 340.31-7Q340.31-3.9 342.41-3.9L342.41-3.9Q343.61-3.9 344.56-4.83 345.51-5.75 346.31-7.45L346.31-7.45 346.31-26.45 352.46-26.45ZM369.81-27.1Q370.96-27.1 371.86-26.75L371.86-26.75 370.86-20.85Q369.86-21.1 369.01-21.1L369.01-21.1Q367.11-21.1 366.01-19.45 364.91-17.8 364.31-14.55L364.31-14.55 364.31 0 358.16 0 358.16-26.45 363.51-26.45 363.96-21.85Q365.81-27.1 369.81-27.1L369.81-27.1ZM393.55-13.85Q393.55-13.4 393.4-11.3L393.4-11.3 379.75-11.3Q379.95-7.2 381.18-5.58 382.4-3.95 384.65-3.95L384.65-3.95Q386.2-3.95 387.45-4.48 388.7-5 390.15-6.15L390.15-6.15 392.7-2.65Q389.2 0.75 384.3 0.75L384.3 0.75Q379.1 0.75 376.33-2.85 373.55-6.45 373.55-13L373.55-13Q373.55-19.55 376.2-23.35 378.85-27.15 383.7-27.15L383.7-27.15Q388.35-27.15 390.95-23.78 393.55-20.4 393.55-13.85L393.55-13.85ZM387.55-15.3L387.55-15.65Q387.55-19.4 386.65-21.13 385.75-22.85 383.75-22.85L383.75-22.85Q381.9-22.85 380.93-21.18 379.95-19.5 379.75-15.3L379.75-15.3 387.55-15.3Z" opacity="1" transform="matrix(1,0,0,1,0,0)" fill="#2a2c35" class="slogan-text-1" data-fill-palette-color="secondary" id="text-1"></path></svg></g></svg></g></svg></g></svg></g></svg></g></svg></g><defs></defs></svg><rect width="395.52" height="102.21341783071679" fill="none" stroke="none" visibility="hidden"></rect></g></svg></g></svg>